<?xml version="1.0" encoding="utf-8" standalone="no"?>
<!DOCTYPE svg PUBLIC "-//W3C//DTD SVG 1.1//EN"
  "http://www.w3.org/Graphics/SVG/1.1/DTD/svg11.dtd">
<svg xmlns:xlink="http://www.w3.org/1999/xlink" width="211.278125pt" height="214.225pt" viewBox="0 0 211.278125 214.225" xmlns="http://www.w3.org/2000/svg" version="1.1">
 <metadata>
  <rdf:RDF xmlns:dc="http://purl.org/dc/elements/1.1/" xmlns:cc="http://creativecommons.org/ns#" xmlns:rdf="http://www.w3.org/1999/02/22-rdf-syntax-ns#">
   <cc:Work>
    <dc:type rdf:resource="http://purl.org/dc/dcmitype/StillImage"/>
    <dc:date>2025-05-28T14:21:25.587990</dc:date>
    <dc:format>image/svg+xml</dc:format>
    <dc:creator>
     <cc:Agent>
      <dc:title>Matplotlib v3.10.3, https://matplotlib.org/</dc:title>
     </cc:Agent>
    </dc:creator>
   </cc:Work>
  </rdf:RDF>
 </metadata>
 <defs>
  <style type="text/css">*{stroke-linejoin: round; stroke-linecap: butt}</style>
 </defs>
 <g id="figure_1">
  <g id="patch_1">
   <path d="M 0 214.225 
L 211.278125 214.225 
L 211.278125 0 
L 0 0 
z
" style="fill: #ffffff"/>
  </g>
  <g id="axes_1">
   <g id="patch_2">
    <path d="M 32.778125 184.246875 
L 200.178125 184.246875 
L 200.178125 17.926875 
L 32.778125 17.926875 
z
" style="fill: #ffffff"/>
   </g>
   <g id="matplotlib.axis_1">
    <g id="xtick_1">
     <g id="line2d_1">
      <defs>
       <path id="mb9007b329f" d="M 0 0 
L 0 -3 
" style="stroke: #000000; stroke-width: 0.5"/>
      </defs>
      <g>
       <use xlink:href="#mb9007b329f" x="32.778125" y="184.246875" style="stroke: #000000; stroke-width: 0.5"/>
      </g>
     </g>
     <g id="line2d_2">
      <defs>
       <path id="mcdc53d3439" d="M 0 0 
L 0 3 
" style="stroke: #000000; stroke-width: 0.5"/>
      </defs>
      <g>
       <use xlink:href="#mcdc53d3439" x="32.778125" y="17.926875" style="stroke: #000000; stroke-width: 0.5"/>
      </g>
     </g>
     <g id="text_1">
      <!-- $\mathdefault{0}$ -->
      <g transform="translate(30.278125 194.685937) scale(0.1 -0.1)">
       <defs>
        <path id="Cmr10-30" d="M 1600 -141 
Q 816 -141 533 504 
Q 250 1150 250 2041 
Q 250 2597 351 3087 
Q 453 3578 754 3920 
Q 1056 4263 1600 4263 
Q 2022 4263 2290 4056 
Q 2559 3850 2700 3523 
Q 2841 3197 2892 2823 
Q 2944 2450 2944 2041 
Q 2944 1491 2842 1011 
Q 2741 531 2444 195 
Q 2147 -141 1600 -141 
z
M 1600 25 
Q 1956 25 2131 390 
Q 2306 756 2347 1200 
Q 2388 1644 2388 2144 
Q 2388 2625 2347 3031 
Q 2306 3438 2132 3767 
Q 1959 4097 1600 4097 
Q 1238 4097 1063 3765 
Q 888 3434 847 3029 
Q 806 2625 806 2144 
Q 806 1788 823 1472 
Q 841 1156 916 820 
Q 991 484 1158 254 
Q 1325 25 1600 25 
z
" transform="scale(0.015625)"/>
       </defs>
       <use xlink:href="#Cmr10-30" transform="translate(0 0.390625)"/>
      </g>
     </g>
    </g>
    <g id="xtick_2">
     <g id="line2d_3">
      <g>
       <use xlink:href="#mb9007b329f" x="74.628125" y="184.246875" style="stroke: #000000; stroke-width: 0.5"/>
      </g>
     </g>
     <g id="line2d_4">
      <g>
       <use xlink:href="#mcdc53d3439" x="74.628125" y="17.926875" style="stroke: #000000; stroke-width: 0.5"/>
      </g>
     </g>
     <g id="text_2">
      <!-- $\mathdefault{50}$ -->
      <g transform="translate(69.628125 194.685937) scale(0.1 -0.1)">
       <defs>
        <path id="Cmr10-35" d="M 556 728 
Q 622 541 758 387 
Q 894 234 1080 148 
Q 1266 63 1466 63 
Q 1928 63 2103 422 
Q 2278 781 2278 1294 
Q 2278 1516 2270 1667 
Q 2263 1819 2228 1959 
Q 2169 2184 2020 2353 
Q 1872 2522 1656 2522 
Q 1441 2522 1286 2456 
Q 1131 2391 1034 2303 
Q 938 2216 863 2119 
Q 788 2022 769 2016 
L 697 2016 
Q 681 2016 657 2036 
Q 634 2056 634 2075 
L 634 4213 
Q 634 4228 654 4245 
Q 675 4263 697 4263 
L 716 4263 
Q 1147 4056 1631 4056 
Q 2106 4056 2547 4263 
L 2566 4263 
Q 2588 4263 2606 4247 
Q 2625 4231 2625 4213 
L 2625 4153 
Q 2625 4122 2613 4122 
Q 2394 3831 2064 3668 
Q 1734 3506 1381 3506 
Q 1125 3506 856 3578 
L 856 2369 
Q 1069 2541 1236 2614 
Q 1403 2688 1663 2688 
Q 2016 2688 2295 2484 
Q 2575 2281 2725 1954 
Q 2875 1628 2875 1288 
Q 2875 903 2686 575 
Q 2497 247 2172 53 
Q 1847 -141 1466 -141 
Q 1150 -141 886 21 
Q 622 184 470 459 
Q 319 734 319 1044 
Q 319 1188 412 1278 
Q 506 1369 647 1369 
Q 788 1369 883 1276 
Q 978 1184 978 1044 
Q 978 906 883 811 
Q 788 716 647 716 
Q 625 716 597 720 
Q 569 725 556 728 
z
" transform="scale(0.015625)"/>
       </defs>
       <use xlink:href="#Cmr10-35" transform="translate(0 0.390625)"/>
       <use xlink:href="#Cmr10-30" transform="translate(50 0.390625)"/>
      </g>
     </g>
    </g>
    <g id="xtick_3">
     <g id="line2d_5">
      <g>
       <use xlink:href="#mb9007b329f" x="116.478125" y="184.246875" style="stroke: #000000; stroke-width: 0.5"/>
      </g>
     </g>
     <g id="line2d_6">
      <g>
       <use xlink:href="#mcdc53d3439" x="116.478125" y="17.926875" style="stroke: #000000; stroke-width: 0.5"/>
      </g>
     </g>
     <g id="text_3">
      <!-- $\mathdefault{100}$ -->
      <g transform="translate(108.978125 194.685937) scale(0.1 -0.1)">
       <defs>
        <path id="Cmr10-31" d="M 594 0 
L 594 225 
Q 1394 225 1394 428 
L 1394 3788 
Q 1063 3628 556 3628 
L 556 3853 
Q 1341 3853 1741 4263 
L 1831 4263 
Q 1853 4263 1873 4245 
Q 1894 4228 1894 4206 
L 1894 428 
Q 1894 225 2694 225 
L 2694 0 
L 594 0 
z
" transform="scale(0.015625)"/>
       </defs>
       <use xlink:href="#Cmr10-31" transform="translate(0 0.390625)"/>
       <use xlink:href="#Cmr10-30" transform="translate(50 0.390625)"/>
       <use xlink:href="#Cmr10-30" transform="translate(100 0.390625)"/>
      </g>
     </g>
    </g>
    <g id="xtick_4">
     <g id="line2d_7">
      <g>
       <use xlink:href="#mb9007b329f" x="158.328125" y="184.246875" style="stroke: #000000; stroke-width: 0.5"/>
      </g>
     </g>
     <g id="line2d_8">
      <g>
       <use xlink:href="#mcdc53d3439" x="158.328125" y="17.926875" style="stroke: #000000; stroke-width: 0.5"/>
      </g>
     </g>
     <g id="text_4">
      <!-- $\mathdefault{150}$ -->
      <g transform="translate(150.828125 194.685937) scale(0.1 -0.1)">
       <use xlink:href="#Cmr10-31" transform="translate(0 0.390625)"/>
       <use xlink:href="#Cmr10-35" transform="translate(50 0.390625)"/>
       <use xlink:href="#Cmr10-30" transform="translate(100 0.390625)"/>
      </g>
     </g>
    </g>
    <g id="xtick_5">
     <g id="line2d_9">
      <g>
       <use xlink:href="#mb9007b329f" x="200.178125" y="184.246875" style="stroke: #000000; stroke-width: 0.5"/>
      </g>
     </g>
     <g id="line2d_10">
      <g>
       <use xlink:href="#mcdc53d3439" x="200.178125" y="17.926875" style="stroke: #000000; stroke-width: 0.5"/>
      </g>
     </g>
     <g id="text_5">
      <!-- $\mathdefault{200}$ -->
      <g transform="translate(192.678125 194.685937) scale(0.1 -0.1)">
       <defs>
        <path id="Cmr10-32" d="M 319 0 
L 319 172 
Q 319 188 331 206 
L 1325 1306 
Q 1550 1550 1690 1715 
Q 1831 1881 1968 2097 
Q 2106 2313 2186 2536 
Q 2266 2759 2266 3009 
Q 2266 3272 2169 3511 
Q 2072 3750 1880 3894 
Q 1688 4038 1416 4038 
Q 1138 4038 916 3870 
Q 694 3703 603 3438 
Q 628 3444 672 3444 
Q 816 3444 917 3347 
Q 1019 3250 1019 3097 
Q 1019 2950 917 2848 
Q 816 2747 672 2747 
Q 522 2747 420 2851 
Q 319 2956 319 3097 
Q 319 3338 409 3548 
Q 500 3759 670 3923 
Q 841 4088 1055 4175 
Q 1269 4263 1509 4263 
Q 1875 4263 2190 4108 
Q 2506 3953 2690 3670 
Q 2875 3388 2875 3009 
Q 2875 2731 2753 2481 
Q 2631 2231 2440 2026 
Q 2250 1822 1953 1562 
Q 1656 1303 1563 1216 
L 838 519 
L 1453 519 
Q 1906 519 2211 526 
Q 2516 534 2534 550 
Q 2609 631 2688 1141 
L 2875 1141 
L 2694 0 
L 319 0 
z
" transform="scale(0.015625)"/>
       </defs>
       <use xlink:href="#Cmr10-32" transform="translate(0 0.390625)"/>
       <use xlink:href="#Cmr10-30" transform="translate(50 0.390625)"/>
       <use xlink:href="#Cmr10-30" transform="translate(100 0.390625)"/>
      </g>
     </g>
    </g>
    <g id="xtick_6">
     <g id="line2d_11">
      <defs>
       <path id="m86c10fdf87" d="M 0 0 
L 0 -1.5 
" style="stroke: #000000; stroke-width: 0.5"/>
      </defs>
      <g>
       <use xlink:href="#m86c10fdf87" x="41.148125" y="184.246875" style="stroke: #000000; stroke-width: 0.5"/>
      </g>
     </g>
     <g id="line2d_12">
      <defs>
       <path id="md916582937" d="M 0 0 
L 0 1.5 
" style="stroke: #000000; stroke-width: 0.5"/>
      </defs>
      <g>
       <use xlink:href="#md916582937" x="41.148125" y="17.926875" style="stroke: #000000; stroke-width: 0.5"/>
      </g>
     </g>
    </g>
    <g id="xtick_7">
     <g id="line2d_13">
      <g>
       <use xlink:href="#m86c10fdf87" x="49.518125" y="184.246875" style="stroke: #000000; stroke-width: 0.5"/>
      </g>
     </g>
     <g id="line2d_14">
      <g>
       <use xlink:href="#md916582937" x="49.518125" y="17.926875" style="stroke: #000000; stroke-width: 0.5"/>
      </g>
     </g>
    </g>
    <g id="xtick_8">
     <g id="line2d_15">
      <g>
       <use xlink:href="#m86c10fdf87" x="57.888125" y="184.246875" style="stroke: #000000; stroke-width: 0.5"/>
      </g>
     </g>
     <g id="line2d_16">
      <g>
       <use xlink:href="#md916582937" x="57.888125" y="17.926875" style="stroke: #000000; stroke-width: 0.5"/>
      </g>
     </g>
    </g>
    <g id="xtick_9">
     <g id="line2d_17">
      <g>
       <use xlink:href="#m86c10fdf87" x="66.258125" y="184.246875" style="stroke: #000000; stroke-width: 0.5"/>
      </g>
     </g>
     <g id="line2d_18">
      <g>
       <use xlink:href="#md916582937" x="66.258125" y="17.926875" style="stroke: #000000; stroke-width: 0.5"/>
      </g>
     </g>
    </g>
    <g id="xtick_10">
     <g id="line2d_19">
      <g>
       <use xlink:href="#m86c10fdf87" x="82.998125" y="184.246875" style="stroke: #000000; stroke-width: 0.5"/>
      </g>
     </g>
     <g id="line2d_20">
      <g>
       <use xlink:href="#md916582937" x="82.998125" y="17.926875" style="stroke: #000000; stroke-width: 0.5"/>
      </g>
     </g>
    </g>
    <g id="xtick_11">
     <g id="line2d_21">
      <g>
       <use xlink:href="#m86c10fdf87" x="91.368125" y="184.246875" style="stroke: #000000; stroke-width: 0.5"/>
      </g>
     </g>
     <g id="line2d_22">
      <g>
       <use xlink:href="#md916582937" x="91.368125" y="17.926875" style="stroke: #000000; stroke-width: 0.5"/>
      </g>
     </g>
    </g>
    <g id="xtick_12">
     <g id="line2d_23">
      <g>
       <use xlink:href="#m86c10fdf87" x="99.738125" y="184.246875" style="stroke: #000000; stroke-width: 0.5"/>
      </g>
     </g>
     <g id="line2d_24">
      <g>
       <use xlink:href="#md916582937" x="99.738125" y="17.926875" style="stroke: #000000; stroke-width: 0.5"/>
      </g>
     </g>
    </g>
    <g id="xtick_13">
     <g id="line2d_25">
      <g>
       <use xlink:href="#m86c10fdf87" x="108.108125" y="184.246875" style="stroke: #000000; stroke-width: 0.5"/>
      </g>
     </g>
     <g id="line2d_26">
      <g>
       <use xlink:href="#md916582937" x="108.108125" y="17.926875" style="stroke: #000000; stroke-width: 0.5"/>
      </g>
     </g>
    </g>
    <g id="xtick_14">
     <g id="line2d_27">
      <g>
       <use xlink:href="#m86c10fdf87" x="124.848125" y="184.246875" style="stroke: #000000; stroke-width: 0.5"/>
      </g>
     </g>
     <g id="line2d_28">
      <g>
       <use xlink:href="#md916582937" x="124.848125" y="17.926875" style="stroke: #000000; stroke-width: 0.5"/>
      </g>
     </g>
    </g>
    <g id="xtick_15">
     <g id="line2d_29">
      <g>
       <use xlink:href="#m86c10fdf87" x="133.218125" y="184.246875" style="stroke: #000000; stroke-width: 0.5"/>
      </g>
     </g>
     <g id="line2d_30">
      <g>
       <use xlink:href="#md916582937" x="133.218125" y="17.926875" style="stroke: #000000; stroke-width: 0.5"/>
      </g>
     </g>
    </g>
    <g id="xtick_16">
     <g id="line2d_31">
      <g>
       <use xlink:href="#m86c10fdf87" x="141.588125" y="184.246875" style="stroke: #000000; stroke-width: 0.5"/>
      </g>
     </g>
     <g id="line2d_32">
      <g>
       <use xlink:href="#md916582937" x="141.588125" y="17.926875" style="stroke: #000000; stroke-width: 0.5"/>
      </g>
     </g>
    </g>
    <g id="xtick_17">
     <g id="line2d_33">
      <g>
       <use xlink:href="#m86c10fdf87" x="149.958125" y="184.246875" style="stroke: #000000; stroke-width: 0.5"/>
      </g>
     </g>
     <g id="line2d_34">
      <g>
       <use xlink:href="#md916582937" x="149.958125" y="17.926875" style="stroke: #000000; stroke-width: 0.5"/>
      </g>
     </g>
    </g>
    <g id="xtick_18">
     <g id="line2d_35">
      <g>
       <use xlink:href="#m86c10fdf87" x="166.698125" y="184.246875" style="stroke: #000000; stroke-width: 0.5"/>
      </g>
     </g>
     <g id="line2d_36">
      <g>
       <use xlink:href="#md916582937" x="166.698125" y="17.926875" style="stroke: #000000; stroke-width: 0.5"/>
      </g>
     </g>
    </g>
    <g id="xtick_19">
     <g id="line2d_37">
      <g>
       <use xlink:href="#m86c10fdf87" x="175.068125" y="184.246875" style="stroke: #000000; stroke-width: 0.5"/>
      </g>
     </g>
     <g id="line2d_38">
      <g>
       <use xlink:href="#md916582937" x="175.068125" y="17.926875" style="stroke: #000000; stroke-width: 0.5"/>
      </g>
     </g>
    </g>
    <g id="xtick_20">
     <g id="line2d_39">
      <g>
       <use xlink:href="#m86c10fdf87" x="183.438125" y="184.246875" style="stroke: #000000; stroke-width: 0.5"/>
      </g>
     </g>
     <g id="line2d_40">
      <g>
       <use xlink:href="#md916582937" x="183.438125" y="17.926875" style="stroke: #000000; stroke-width: 0.5"/>
      </g>
     </g>
    </g>
    <g id="xtick_21">
     <g id="line2d_41">
      <g>
       <use xlink:href="#m86c10fdf87" x="191.808125" y="184.246875" style="stroke: #000000; stroke-width: 0.5"/>
      </g>
     </g>
     <g id="line2d_42">
      <g>
       <use xlink:href="#md916582937" x="191.808125" y="17.926875" style="stroke: #000000; stroke-width: 0.5"/>
      </g>
     </g>
    </g>
    <g id="text_6">
     <!-- Lifetime (hours) -->
     <g transform="translate(80.990625 208.125) scale(0.1 -0.1)">
      <defs>
       <path id="Cmr10-4c" d="M 197 0 
L 197 225 
Q 856 225 856 428 
L 856 3944 
Q 856 4147 197 4147 
L 197 4372 
L 2272 4372 
L 2272 4147 
Q 1453 4147 1453 3944 
L 1453 428 
Q 1453 291 1531 258 
Q 1609 225 1778 225 
L 2272 225 
Q 2750 225 3009 400 
Q 3269 575 3376 876 
Q 3484 1178 3541 1678 
L 3725 1678 
L 3547 0 
L 197 0 
z
" transform="scale(0.015625)"/>
       <path id="Cmr10-69" d="M 197 0 
L 197 225 
Q 416 225 556 259 
Q 697 294 697 428 
L 697 2175 
Q 697 2422 601 2478 
Q 506 2534 225 2534 
L 225 2759 
L 1147 2828 
L 1147 428 
Q 1147 294 1269 259 
Q 1391 225 1594 225 
L 1594 0 
L 197 0 
z
M 469 3928 
Q 469 4069 575 4175 
Q 681 4281 819 4281 
Q 909 4281 993 4234 
Q 1078 4188 1125 4103 
Q 1172 4019 1172 3928 
Q 1172 3791 1065 3684 
Q 959 3578 819 3578 
Q 681 3578 575 3684 
Q 469 3791 469 3928 
z
" transform="scale(0.015625)"/>
       <path id="Cmr10-66" d="M 206 0 
L 206 225 
Q 422 225 562 259 
Q 703 294 703 428 
L 703 2534 
L 213 2534 
L 213 2759 
L 703 2759 
L 703 3525 
Q 703 3731 789 3911 
Q 875 4091 1020 4225 
Q 1166 4359 1355 4436 
Q 1544 4513 1747 4513 
Q 1963 4513 2136 4384 
Q 2309 4256 2309 4044 
Q 2309 3922 2226 3839 
Q 2144 3756 2022 3756 
Q 1900 3756 1814 3839 
Q 1728 3922 1728 4044 
Q 1728 4244 1900 4313 
Q 1797 4347 1716 4347 
Q 1528 4347 1395 4214 
Q 1263 4081 1197 3890 
Q 1131 3700 1131 3513 
L 1131 2759 
L 1869 2759 
L 1869 2534 
L 1153 2534 
L 1153 428 
Q 1153 297 1340 261 
Q 1528 225 1772 225 
L 1772 0 
L 206 0 
z
" transform="scale(0.015625)"/>
       <path id="Cmr10-65" d="M 1594 -72 
Q 1203 -72 876 133 
Q 550 338 364 680 
Q 178 1022 178 1403 
Q 178 1778 348 2115 
Q 519 2453 823 2661 
Q 1128 2869 1503 2869 
Q 1797 2869 2014 2770 
Q 2231 2672 2372 2497 
Q 2513 2322 2584 2084 
Q 2656 1847 2656 1563 
Q 2656 1478 2591 1478 
L 738 1478 
L 738 1409 
Q 738 878 952 497 
Q 1166 116 1650 116 
Q 1847 116 2014 203 
Q 2181 291 2304 447 
Q 2428 603 2472 781 
Q 2478 803 2495 820 
Q 2513 838 2534 838 
L 2591 838 
Q 2656 838 2656 756 
Q 2566 394 2266 161 
Q 1966 -72 1594 -72 
z
M 744 1638 
L 2203 1638 
Q 2203 1878 2136 2125 
Q 2069 2372 1912 2536 
Q 1756 2700 1503 2700 
Q 1141 2700 942 2361 
Q 744 2022 744 1638 
z
" transform="scale(0.015625)"/>
       <path id="Cmr10-74" d="M 653 769 
L 653 2534 
L 122 2534 
L 122 2700 
Q 541 2700 737 3090 
Q 934 3481 934 3938 
L 1119 3938 
L 1119 2759 
L 2022 2759 
L 2022 2534 
L 1119 2534 
L 1119 781 
Q 1119 516 1208 316 
Q 1297 116 1528 116 
Q 1747 116 1844 327 
Q 1941 538 1941 781 
L 1941 1159 
L 2125 1159 
L 2125 769 
Q 2125 569 2051 373 
Q 1978 178 1834 53 
Q 1691 -72 1484 -72 
Q 1100 -72 876 158 
Q 653 388 653 769 
z
" transform="scale(0.015625)"/>
       <path id="Cmr10-6d" d="M 191 0 
L 191 225 
Q 409 225 550 259 
Q 691 294 691 428 
L 691 2175 
Q 691 2347 639 2423 
Q 588 2500 491 2517 
Q 394 2534 191 2534 
L 191 2759 
L 1119 2828 
L 1119 2203 
Q 1247 2478 1498 2653 
Q 1750 2828 2047 2828 
Q 2784 2828 2913 2228 
Q 3041 2497 3287 2662 
Q 3534 2828 3828 2828 
Q 4119 2828 4317 2734 
Q 4516 2641 4616 2448 
Q 4716 2256 4716 1966 
L 4716 428 
Q 4716 294 4858 259 
Q 5000 225 5216 225 
L 5216 0 
L 3750 0 
L 3750 225 
Q 3969 225 4109 259 
Q 4250 294 4250 428 
L 4250 1947 
Q 4250 2269 4159 2466 
Q 4069 2663 3788 2663 
Q 3419 2663 3178 2366 
Q 2938 2069 2938 1691 
L 2938 428 
Q 2938 294 3078 259 
Q 3219 225 3438 225 
L 3438 0 
L 1972 0 
L 1972 225 
Q 2191 225 2331 259 
Q 2472 294 2472 428 
L 2472 1947 
Q 2472 2259 2381 2461 
Q 2291 2663 2009 2663 
Q 1638 2663 1398 2366 
Q 1159 2069 1159 1691 
L 1159 428 
Q 1159 294 1300 259 
Q 1441 225 1656 225 
L 1656 0 
L 191 0 
z
" transform="scale(0.015625)"/>
       <path id="Cmr10-20" transform="scale(0.015625)"/>
       <path id="Cmr10-28" d="M 1984 -1588 
Q 1628 -1306 1370 -942 
Q 1113 -578 948 -165 
Q 784 247 703 697 
Q 622 1147 622 1600 
Q 622 2059 703 2509 
Q 784 2959 951 3375 
Q 1119 3791 1378 4153 
Q 1638 4516 1984 4788 
Q 1984 4800 2016 4800 
L 2075 4800 
Q 2094 4800 2109 4783 
Q 2125 4766 2125 4744 
Q 2125 4716 2113 4703 
Q 1800 4397 1592 4047 
Q 1384 3697 1257 3301 
Q 1131 2906 1075 2482 
Q 1019 2059 1019 1600 
Q 1019 -434 2106 -1491 
Q 2125 -1509 2125 -1544 
Q 2125 -1559 2108 -1579 
Q 2091 -1600 2075 -1600 
L 2016 -1600 
Q 1984 -1600 1984 -1588 
z
" transform="scale(0.015625)"/>
       <path id="Cmr10-68" d="M 191 0 
L 191 225 
Q 409 225 550 259 
Q 691 294 691 428 
L 691 3788 
Q 691 3959 639 4036 
Q 588 4113 491 4130 
Q 394 4147 191 4147 
L 191 4372 
L 1141 4441 
L 1141 2241 
Q 1275 2506 1515 2667 
Q 1756 2828 2047 2828 
Q 2491 2828 2714 2615 
Q 2938 2403 2938 1966 
L 2938 428 
Q 2938 294 3078 259 
Q 3219 225 3438 225 
L 3438 0 
L 1972 0 
L 1972 225 
Q 2191 225 2331 259 
Q 2472 294 2472 428 
L 2472 1947 
Q 2472 2259 2381 2461 
Q 2291 2663 2009 2663 
Q 1638 2663 1398 2366 
Q 1159 2069 1159 1691 
L 1159 428 
Q 1159 294 1300 259 
Q 1441 225 1656 225 
L 1656 0 
L 191 0 
z
" transform="scale(0.015625)"/>
       <path id="Cmr10-6f" d="M 1600 -72 
Q 1216 -72 887 123 
Q 559 319 368 647 
Q 178 975 178 1363 
Q 178 1656 283 1928 
Q 388 2200 583 2414 
Q 778 2628 1037 2748 
Q 1297 2869 1600 2869 
Q 1994 2869 2317 2661 
Q 2641 2453 2828 2104 
Q 3016 1756 3016 1363 
Q 3016 978 2825 648 
Q 2634 319 2307 123 
Q 1981 -72 1600 -72 
z
M 1600 116 
Q 2113 116 2284 487 
Q 2456 859 2456 1434 
Q 2456 1756 2422 1967 
Q 2388 2178 2272 2350 
Q 2200 2456 2089 2536 
Q 1978 2616 1854 2658 
Q 1731 2700 1600 2700 
Q 1400 2700 1220 2609 
Q 1041 2519 922 2350 
Q 803 2169 770 1951 
Q 738 1734 738 1434 
Q 738 1075 800 789 
Q 863 503 1052 309 
Q 1241 116 1600 116 
z
" transform="scale(0.015625)"/>
       <path id="Cmr10-75" d="M 691 763 
L 691 2175 
Q 691 2347 639 2423 
Q 588 2500 491 2517 
Q 394 2534 191 2534 
L 191 2759 
L 1159 2828 
L 1159 763 
Q 1159 513 1195 373 
Q 1231 234 1348 165 
Q 1466 97 1722 97 
Q 2066 97 2269 384 
Q 2472 672 2472 1038 
L 2472 2175 
Q 2472 2347 2419 2423 
Q 2366 2500 2270 2517 
Q 2175 2534 1972 2534 
L 1972 2759 
L 2938 2828 
L 2938 581 
Q 2938 413 2989 336 
Q 3041 259 3137 242 
Q 3234 225 3438 225 
L 3438 0 
L 2491 -72 
L 2491 469 
Q 2372 228 2159 78 
Q 1947 -72 1691 -72 
Q 1231 -72 961 123 
Q 691 319 691 763 
z
" transform="scale(0.015625)"/>
       <path id="Cmr10-72" d="M 166 0 
L 166 225 
Q 384 225 525 259 
Q 666 294 666 428 
L 666 2175 
Q 666 2347 614 2423 
Q 563 2500 466 2517 
Q 369 2534 166 2534 
L 166 2759 
L 1081 2828 
L 1081 2203 
Q 1184 2481 1375 2654 
Q 1566 2828 1838 2828 
Q 2028 2828 2178 2715 
Q 2328 2603 2328 2419 
Q 2328 2303 2245 2217 
Q 2163 2131 2041 2131 
Q 1922 2131 1837 2215 
Q 1753 2300 1753 2419 
Q 1753 2591 1875 2663 
L 1838 2663 
Q 1578 2663 1414 2475 
Q 1250 2288 1181 2009 
Q 1113 1731 1113 1478 
L 1113 428 
Q 1113 225 1734 225 
L 1734 0 
L 166 0 
z
" transform="scale(0.015625)"/>
       <path id="Cmr10-73" d="M 213 -19 
L 213 1025 
Q 213 1075 269 1075 
L 347 1075 
Q 384 1075 397 1025 
Q 575 97 1259 97 
Q 1563 97 1767 234 
Q 1972 372 1972 659 
Q 1972 866 1812 1011 
Q 1653 1156 1434 1209 
L 1006 1294 
Q 791 1341 614 1437 
Q 438 1534 325 1695 
Q 213 1856 213 2069 
Q 213 2350 361 2529 
Q 509 2709 746 2789 
Q 984 2869 1259 2869 
Q 1588 2869 1831 2694 
L 2016 2853 
Q 2016 2869 2047 2869 
L 2094 2869 
Q 2113 2869 2128 2851 
Q 2144 2834 2144 2816 
L 2144 1978 
Q 2144 1919 2094 1919 
L 2016 1919 
Q 1959 1919 1959 1978 
Q 1959 2313 1773 2516 
Q 1588 2719 1253 2719 
Q 966 2719 755 2612 
Q 544 2506 544 2247 
Q 544 2069 695 1955 
Q 847 1841 1050 1791 
L 1484 1709 
Q 1703 1659 1892 1540 
Q 2081 1422 2192 1240 
Q 2303 1059 2303 831 
Q 2303 600 2223 429 
Q 2144 259 2001 146 
Q 1859 34 1665 -19 
Q 1472 -72 1259 -72 
Q 859 -72 575 197 
L 341 -56 
Q 341 -72 306 -72 
L 269 -72 
Q 213 -72 213 -19 
z
" transform="scale(0.015625)"/>
       <path id="Cmr10-29" d="M 416 -1600 
Q 359 -1600 359 -1544 
Q 359 -1516 372 -1503 
Q 1466 -434 1466 1600 
Q 1466 3634 384 4691 
Q 359 4706 359 4744 
Q 359 4766 376 4783 
Q 394 4800 416 4800 
L 475 4800 
Q 494 4800 506 4788 
Q 966 4425 1272 3906 
Q 1578 3388 1720 2800 
Q 1863 2213 1863 1600 
Q 1863 1147 1786 708 
Q 1709 269 1542 -157 
Q 1375 -584 1119 -945 
Q 863 -1306 506 -1588 
Q 494 -1600 475 -1600 
L 416 -1600 
z
" transform="scale(0.015625)"/>
      </defs>
      <use xlink:href="#Cmr10-4c"/>
      <use xlink:href="#Cmr10-69" transform="translate(62.5 0)"/>
      <use xlink:href="#Cmr10-66" transform="translate(90.185547 0)"/>
      <use xlink:href="#Cmr10-65" transform="translate(120.703125 0)"/>
      <use xlink:href="#Cmr10-74" transform="translate(165.087891 0)"/>
      <use xlink:href="#Cmr10-69" transform="translate(203.90625 0)"/>
      <use xlink:href="#Cmr10-6d" transform="translate(231.591797 0)"/>
      <use xlink:href="#Cmr10-65" transform="translate(314.892578 0)"/>
      <use xlink:href="#Cmr10-20" transform="translate(359.277344 0)"/>
      <use xlink:href="#Cmr10-28" transform="translate(392.578125 0)"/>
      <use xlink:href="#Cmr10-68" transform="translate(431.396484 0)"/>
      <use xlink:href="#Cmr10-6f" transform="translate(486.914062 0)"/>
      <use xlink:href="#Cmr10-75" transform="translate(536.914062 0)"/>
      <use xlink:href="#Cmr10-72" transform="translate(592.431641 0)"/>
      <use xlink:href="#Cmr10-73" transform="translate(631.542969 0)"/>
      <use xlink:href="#Cmr10-29" transform="translate(670.947266 0)"/>
     </g>
    </g>
   </g>
   <g id="matplotlib.axis_2">
    <g id="ytick_1">
     <g id="line2d_43">
      <defs>
       <path id="m0eb0a39252" d="M 0 0 
L 3 0 
" style="stroke: #000000; stroke-width: 0.5"/>
      </defs>
      <g>
       <use xlink:href="#m0eb0a39252" x="32.778125" y="176.686875" style="stroke: #000000; stroke-width: 0.5"/>
      </g>
     </g>
     <g id="line2d_44">
      <defs>
       <path id="m9570284281" d="M 0 0 
L -3 0 
" style="stroke: #000000; stroke-width: 0.5"/>
      </defs>
      <g>
       <use xlink:href="#m9570284281" x="200.178125" y="176.686875" style="stroke: #000000; stroke-width: 0.5"/>
      </g>
     </g>
     <g id="text_7">
      <!-- $\mathdefault{0.0}$ -->
      <g transform="translate(16.478125 180.156406) scale(0.1 -0.1)">
       <defs>
        <path id="Cmr10-2e" d="M 538 353 
Q 538 497 644 600 
Q 750 703 891 703 
Q 978 703 1062 656 
Q 1147 609 1194 525 
Q 1241 441 1241 353 
Q 1241 213 1137 106 
Q 1034 0 891 0 
Q 750 0 644 106 
Q 538 213 538 353 
z
" transform="scale(0.015625)"/>
       </defs>
       <use xlink:href="#Cmr10-30" transform="translate(0 0.390625)"/>
       <use xlink:href="#Cmr10-2e" transform="translate(50 0.390625)"/>
       <use xlink:href="#Cmr10-30" transform="translate(77.685547 0.390625)"/>
      </g>
     </g>
    </g>
    <g id="ytick_2">
     <g id="line2d_45">
      <g>
       <use xlink:href="#m0eb0a39252" x="32.778125" y="146.446875" style="stroke: #000000; stroke-width: 0.5"/>
      </g>
     </g>
     <g id="line2d_46">
      <g>
       <use xlink:href="#m9570284281" x="200.178125" y="146.446875" style="stroke: #000000; stroke-width: 0.5"/>
      </g>
     </g>
     <g id="text_8">
      <!-- $\mathdefault{0.2}$ -->
      <g transform="translate(16.478125 149.916406) scale(0.1 -0.1)">
       <use xlink:href="#Cmr10-30" transform="translate(0 0.390625)"/>
       <use xlink:href="#Cmr10-2e" transform="translate(50 0.390625)"/>
       <use xlink:href="#Cmr10-32" transform="translate(77.685547 0.390625)"/>
      </g>
     </g>
    </g>
    <g id="ytick_3">
     <g id="line2d_47">
      <g>
       <use xlink:href="#m0eb0a39252" x="32.778125" y="116.206875" style="stroke: #000000; stroke-width: 0.5"/>
      </g>
     </g>
     <g id="line2d_48">
      <g>
       <use xlink:href="#m9570284281" x="200.178125" y="116.206875" style="stroke: #000000; stroke-width: 0.5"/>
      </g>
     </g>
     <g id="text_9">
      <!-- $\mathdefault{0.4}$ -->
      <g transform="translate(16.478125 119.676406) scale(0.1 -0.1)">
       <defs>
        <path id="Cmr10-34" d="M 178 1056 
L 178 1281 
L 2156 4231 
Q 2178 4263 2222 4263 
L 2316 4263 
Q 2388 4263 2388 4191 
L 2388 1281 
L 3016 1281 
L 3016 1056 
L 2388 1056 
L 2388 428 
Q 2388 297 2575 261 
Q 2763 225 3009 225 
L 3009 0 
L 1247 0 
L 1247 225 
Q 1494 225 1681 261 
Q 1869 297 1869 428 
L 1869 1056 
L 178 1056 
z
M 391 1281 
L 1906 1281 
L 1906 3547 
L 391 1281 
z
" transform="scale(0.015625)"/>
       </defs>
       <use xlink:href="#Cmr10-30" transform="translate(0 0.390625)"/>
       <use xlink:href="#Cmr10-2e" transform="translate(50 0.390625)"/>
       <use xlink:href="#Cmr10-34" transform="translate(77.685547 0.390625)"/>
      </g>
     </g>
    </g>
    <g id="ytick_4">
     <g id="line2d_49">
      <g>
       <use xlink:href="#m0eb0a39252" x="32.778125" y="85.966875" style="stroke: #000000; stroke-width: 0.5"/>
      </g>
     </g>
     <g id="line2d_50">
      <g>
       <use xlink:href="#m9570284281" x="200.178125" y="85.966875" style="stroke: #000000; stroke-width: 0.5"/>
      </g>
     </g>
     <g id="text_10">
      <!-- $\mathdefault{0.6}$ -->
      <g transform="translate(16.478125 89.436406) scale(0.1 -0.1)">
       <defs>
        <path id="Cmr10-36" d="M 1600 -141 
Q 1203 -141 937 70 
Q 672 281 526 617 
Q 381 953 325 1322 
Q 269 1691 269 2069 
Q 269 2575 466 3084 
Q 663 3594 1045 3928 
Q 1428 4263 1953 4263 
Q 2172 4263 2361 4180 
Q 2550 4097 2658 3936 
Q 2766 3775 2766 3547 
Q 2766 3416 2677 3327 
Q 2588 3238 2456 3238 
Q 2331 3238 2240 3328 
Q 2150 3419 2150 3547 
Q 2150 3672 2240 3762 
Q 2331 3853 2456 3853 
L 2491 3853 
Q 2409 3969 2261 4023 
Q 2113 4078 1953 4078 
Q 1759 4078 1595 3993 
Q 1431 3909 1300 3765 
Q 1169 3622 1081 3448 
Q 994 3275 945 3053 
Q 897 2831 884 2637 
Q 872 2444 872 2150 
Q 984 2413 1190 2580 
Q 1397 2747 1656 2747 
Q 1941 2747 2175 2631 
Q 2409 2516 2578 2311 
Q 2747 2106 2836 1843 
Q 2925 1581 2925 1313 
Q 2925 938 2758 598 
Q 2591 259 2287 59 
Q 1984 -141 1600 -141 
z
M 1600 63 
Q 1847 63 1997 175 
Q 2147 288 2217 473 
Q 2288 659 2305 848 
Q 2322 1038 2322 1313 
Q 2322 1675 2287 1931 
Q 2253 2188 2100 2383 
Q 1947 2578 1631 2578 
Q 1372 2578 1205 2403 
Q 1038 2228 961 1961 
Q 884 1694 884 1447 
Q 884 1363 891 1319 
Q 891 1309 889 1303 
Q 888 1297 884 1288 
Q 884 1013 940 731 
Q 997 450 1156 256 
Q 1316 63 1600 63 
z
" transform="scale(0.015625)"/>
       </defs>
       <use xlink:href="#Cmr10-30" transform="translate(0 0.390625)"/>
       <use xlink:href="#Cmr10-2e" transform="translate(50 0.390625)"/>
       <use xlink:href="#Cmr10-36" transform="translate(77.685547 0.390625)"/>
      </g>
     </g>
    </g>
    <g id="ytick_5">
     <g id="line2d_51">
      <g>
       <use xlink:href="#m0eb0a39252" x="32.778125" y="55.726875" style="stroke: #000000; stroke-width: 0.5"/>
      </g>
     </g>
     <g id="line2d_52">
      <g>
       <use xlink:href="#m9570284281" x="200.178125" y="55.726875" style="stroke: #000000; stroke-width: 0.5"/>
      </g>
     </g>
     <g id="text_11">
      <!-- $\mathdefault{0.8}$ -->
      <g transform="translate(16.478125 59.196406) scale(0.1 -0.1)">
       <defs>
        <path id="Cmr10-38" d="M 269 972 
Q 269 1356 522 1651 
Q 775 1947 1172 2144 
L 934 2297 
Q 716 2441 578 2680 
Q 441 2919 441 3181 
Q 441 3488 602 3734 
Q 763 3981 1030 4122 
Q 1297 4263 1600 4263 
Q 1884 4263 2148 4147 
Q 2413 4031 2583 3815 
Q 2753 3600 2753 3303 
Q 2753 3088 2651 2903 
Q 2550 2719 2373 2572 
Q 2197 2425 1997 2322 
L 2363 2088 
Q 2616 1922 2770 1653 
Q 2925 1384 2925 1088 
Q 2925 741 2739 456 
Q 2553 172 2247 15 
Q 1941 -141 1600 -141 
Q 1269 -141 961 -6 
Q 653 128 461 383 
Q 269 638 269 972 
z
M 616 972 
Q 616 719 755 509 
Q 894 300 1122 181 
Q 1350 63 1600 63 
Q 1972 63 2275 280 
Q 2578 497 2578 856 
Q 2578 978 2529 1098 
Q 2481 1219 2395 1317 
Q 2309 1416 2203 1478 
L 1344 2034 
Q 1144 1928 976 1765 
Q 809 1603 712 1400 
Q 616 1197 616 972 
z
M 1056 2925 
L 1831 2425 
Q 2100 2581 2272 2803 
Q 2444 3025 2444 3303 
Q 2444 3519 2323 3698 
Q 2203 3878 2009 3978 
Q 1816 4078 1594 4078 
Q 1400 4078 1203 4003 
Q 1006 3928 878 3779 
Q 750 3631 750 3431 
Q 750 3131 1056 2925 
z
" transform="scale(0.015625)"/>
       </defs>
       <use xlink:href="#Cmr10-30" transform="translate(0 0.390625)"/>
       <use xlink:href="#Cmr10-2e" transform="translate(50 0.390625)"/>
       <use xlink:href="#Cmr10-38" transform="translate(77.685547 0.390625)"/>
      </g>
     </g>
    </g>
    <g id="ytick_6">
     <g id="line2d_53">
      <g>
       <use xlink:href="#m0eb0a39252" x="32.778125" y="25.486875" style="stroke: #000000; stroke-width: 0.5"/>
      </g>
     </g>
     <g id="line2d_54">
      <g>
       <use xlink:href="#m9570284281" x="200.178125" y="25.486875" style="stroke: #000000; stroke-width: 0.5"/>
      </g>
     </g>
     <g id="text_12">
      <!-- $\mathdefault{1.0}$ -->
      <g transform="translate(16.478125 28.956406) scale(0.1 -0.1)">
       <use xlink:href="#Cmr10-31" transform="translate(0 0.390625)"/>
       <use xlink:href="#Cmr10-2e" transform="translate(50 0.390625)"/>
       <use xlink:href="#Cmr10-30" transform="translate(77.685547 0.390625)"/>
      </g>
     </g>
    </g>
    <g id="ytick_7">
     <g id="line2d_55">
      <defs>
       <path id="m947f883293" d="M 0 0 
L 1.5 0 
" style="stroke: #000000; stroke-width: 0.5"/>
      </defs>
      <g>
       <use xlink:href="#m947f883293" x="32.778125" y="184.246875" style="stroke: #000000; stroke-width: 0.5"/>
      </g>
     </g>
     <g id="line2d_56">
      <defs>
       <path id="m73da5a1a64" d="M 0 0 
L -1.5 0 
" style="stroke: #000000; stroke-width: 0.5"/>
      </defs>
      <g>
       <use xlink:href="#m73da5a1a64" x="200.178125" y="184.246875" style="stroke: #000000; stroke-width: 0.5"/>
      </g>
     </g>
    </g>
    <g id="ytick_8">
     <g id="line2d_57">
      <g>
       <use xlink:href="#m947f883293" x="32.778125" y="169.126875" style="stroke: #000000; stroke-width: 0.5"/>
      </g>
     </g>
     <g id="line2d_58">
      <g>
       <use xlink:href="#m73da5a1a64" x="200.178125" y="169.126875" style="stroke: #000000; stroke-width: 0.5"/>
      </g>
     </g>
    </g>
    <g id="ytick_9">
     <g id="line2d_59">
      <g>
       <use xlink:href="#m947f883293" x="32.778125" y="161.566875" style="stroke: #000000; stroke-width: 0.5"/>
      </g>
     </g>
     <g id="line2d_60">
      <g>
       <use xlink:href="#m73da5a1a64" x="200.178125" y="161.566875" style="stroke: #000000; stroke-width: 0.5"/>
      </g>
     </g>
    </g>
    <g id="ytick_10">
     <g id="line2d_61">
      <g>
       <use xlink:href="#m947f883293" x="32.778125" y="154.006875" style="stroke: #000000; stroke-width: 0.5"/>
      </g>
     </g>
     <g id="line2d_62">
      <g>
       <use xlink:href="#m73da5a1a64" x="200.178125" y="154.006875" style="stroke: #000000; stroke-width: 0.5"/>
      </g>
     </g>
    </g>
    <g id="ytick_11">
     <g id="line2d_63">
      <g>
       <use xlink:href="#m947f883293" x="32.778125" y="138.886875" style="stroke: #000000; stroke-width: 0.5"/>
      </g>
     </g>
     <g id="line2d_64">
      <g>
       <use xlink:href="#m73da5a1a64" x="200.178125" y="138.886875" style="stroke: #000000; stroke-width: 0.5"/>
      </g>
     </g>
    </g>
    <g id="ytick_12">
     <g id="line2d_65">
      <g>
       <use xlink:href="#m947f883293" x="32.778125" y="131.326875" style="stroke: #000000; stroke-width: 0.5"/>
      </g>
     </g>
     <g id="line2d_66">
      <g>
       <use xlink:href="#m73da5a1a64" x="200.178125" y="131.326875" style="stroke: #000000; stroke-width: 0.5"/>
      </g>
     </g>
    </g>
    <g id="ytick_13">
     <g id="line2d_67">
      <g>
       <use xlink:href="#m947f883293" x="32.778125" y="123.766875" style="stroke: #000000; stroke-width: 0.5"/>
      </g>
     </g>
     <g id="line2d_68">
      <g>
       <use xlink:href="#m73da5a1a64" x="200.178125" y="123.766875" style="stroke: #000000; stroke-width: 0.5"/>
      </g>
     </g>
    </g>
    <g id="ytick_14">
     <g id="line2d_69">
      <g>
       <use xlink:href="#m947f883293" x="32.778125" y="108.646875" style="stroke: #000000; stroke-width: 0.5"/>
      </g>
     </g>
     <g id="line2d_70">
      <g>
       <use xlink:href="#m73da5a1a64" x="200.178125" y="108.646875" style="stroke: #000000; stroke-width: 0.5"/>
      </g>
     </g>
    </g>
    <g id="ytick_15">
     <g id="line2d_71">
      <g>
       <use xlink:href="#m947f883293" x="32.778125" y="101.086875" style="stroke: #000000; stroke-width: 0.5"/>
      </g>
     </g>
     <g id="line2d_72">
      <g>
       <use xlink:href="#m73da5a1a64" x="200.178125" y="101.086875" style="stroke: #000000; stroke-width: 0.5"/>
      </g>
     </g>
    </g>
    <g id="ytick_16">
     <g id="line2d_73">
      <g>
       <use xlink:href="#m947f883293" x="32.778125" y="93.526875" style="stroke: #000000; stroke-width: 0.5"/>
      </g>
     </g>
     <g id="line2d_74">
      <g>
       <use xlink:href="#m73da5a1a64" x="200.178125" y="93.526875" style="stroke: #000000; stroke-width: 0.5"/>
      </g>
     </g>
    </g>
    <g id="ytick_17">
     <g id="line2d_75">
      <g>
       <use xlink:href="#m947f883293" x="32.778125" y="78.406875" style="stroke: #000000; stroke-width: 0.5"/>
      </g>
     </g>
     <g id="line2d_76">
      <g>
       <use xlink:href="#m73da5a1a64" x="200.178125" y="78.406875" style="stroke: #000000; stroke-width: 0.5"/>
      </g>
     </g>
    </g>
    <g id="ytick_18">
     <g id="line2d_77">
      <g>
       <use xlink:href="#m947f883293" x="32.778125" y="70.846875" style="stroke: #000000; stroke-width: 0.5"/>
      </g>
     </g>
     <g id="line2d_78">
      <g>
       <use xlink:href="#m73da5a1a64" x="200.178125" y="70.846875" style="stroke: #000000; stroke-width: 0.5"/>
      </g>
     </g>
    </g>
    <g id="ytick_19">
     <g id="line2d_79">
      <g>
       <use xlink:href="#m947f883293" x="32.778125" y="63.286875" style="stroke: #000000; stroke-width: 0.5"/>
      </g>
     </g>
     <g id="line2d_80">
      <g>
       <use xlink:href="#m73da5a1a64" x="200.178125" y="63.286875" style="stroke: #000000; stroke-width: 0.5"/>
      </g>
     </g>
    </g>
    <g id="ytick_20">
     <g id="line2d_81">
      <g>
       <use xlink:href="#m947f883293" x="32.778125" y="48.166875" style="stroke: #000000; stroke-width: 0.5"/>
      </g>
     </g>
     <g id="line2d_82">
      <g>
       <use xlink:href="#m73da5a1a64" x="200.178125" y="48.166875" style="stroke: #000000; stroke-width: 0.5"/>
      </g>
     </g>
    </g>
    <g id="ytick_21">
     <g id="line2d_83">
      <g>
       <use xlink:href="#m947f883293" x="32.778125" y="40.606875" style="stroke: #000000; stroke-width: 0.5"/>
      </g>
     </g>
     <g id="line2d_84">
      <g>
       <use xlink:href="#m73da5a1a64" x="200.178125" y="40.606875" style="stroke: #000000; stroke-width: 0.5"/>
      </g>
     </g>
    </g>
    <g id="ytick_22">
     <g id="line2d_85">
      <g>
       <use xlink:href="#m947f883293" x="32.778125" y="33.046875" style="stroke: #000000; stroke-width: 0.5"/>
      </g>
     </g>
     <g id="line2d_86">
      <g>
       <use xlink:href="#m73da5a1a64" x="200.178125" y="33.046875" style="stroke: #000000; stroke-width: 0.5"/>
      </g>
     </g>
    </g>
    <g id="ytick_23">
     <g id="line2d_87">
      <g>
       <use xlink:href="#m947f883293" x="32.778125" y="17.926875" style="stroke: #000000; stroke-width: 0.5"/>
      </g>
     </g>
     <g id="line2d_88">
      <g>
       <use xlink:href="#m73da5a1a64" x="200.178125" y="17.926875" style="stroke: #000000; stroke-width: 0.5"/>
      </g>
     </g>
    </g>
    <g id="text_13">
     <!-- CDF -->
     <g transform="translate(10.539063 111.772812) rotate(-90) scale(0.1 -0.1)">
      <defs>
       <path id="Cmr10-43" d="M 1459 684 
Q 1678 406 2006 245 
Q 2334 84 2688 84 
Q 2984 84 3237 201 
Q 3491 319 3680 528 
Q 3869 738 3970 1003 
Q 4072 1269 4072 1563 
Q 4072 1613 4128 1613 
L 4206 1613 
Q 4256 1613 4256 1550 
Q 4256 1216 4128 905 
Q 4000 594 3765 358 
Q 3531 122 3226 -9 
Q 2922 -141 2591 -141 
Q 2131 -141 1720 45 
Q 1309 231 1004 554 
Q 700 878 529 1303 
Q 359 1728 359 2188 
Q 359 2647 529 3072 
Q 700 3497 1004 3822 
Q 1309 4147 1720 4330 
Q 2131 4513 2591 4513 
Q 2919 4513 3219 4370 
Q 3519 4228 3744 3969 
L 4116 4494 
Q 4153 4513 4159 4513 
L 4206 4513 
Q 4225 4513 4240 4497 
Q 4256 4481 4256 4459 
L 4256 2731 
Q 4256 2675 4206 2675 
L 4091 2675 
Q 4031 2675 4031 2731 
Q 4031 2916 3957 3144 
Q 3884 3372 3770 3576 
Q 3656 3781 3506 3938 
Q 3147 4288 2681 4288 
Q 2328 4288 2004 4128 
Q 1681 3969 1459 3688 
Q 1225 3388 1134 3005 
Q 1044 2622 1044 2188 
Q 1044 1753 1134 1368 
Q 1225 984 1459 684 
z
" transform="scale(0.015625)"/>
       <path id="Cmr10-44" d="M 213 0 
L 213 225 
Q 872 225 872 428 
L 872 3944 
Q 872 4147 213 4147 
L 213 4372 
L 2572 4372 
Q 3009 4372 3371 4183 
Q 3734 3994 3990 3678 
Q 4247 3363 4386 2963 
Q 4525 2563 4525 2144 
Q 4525 1738 4384 1355 
Q 4244 972 3980 664 
Q 3716 356 3355 178 
Q 2994 0 2572 0 
L 213 0 
z
M 1447 428 
Q 1447 291 1525 258 
Q 1603 225 1772 225 
L 2406 225 
Q 2734 225 3029 367 
Q 3325 509 3519 763 
Q 3722 1031 3790 1364 
Q 3859 1697 3859 2144 
Q 3859 2609 3790 2959 
Q 3722 3309 3519 3584 
Q 3328 3856 3034 4001 
Q 2741 4147 2406 4147 
L 1772 4147 
Q 1656 4147 1592 4137 
Q 1528 4128 1487 4083 
Q 1447 4038 1447 3944 
L 1447 428 
z
" transform="scale(0.015625)"/>
       <path id="Cmr10-46" d="M 197 0 
L 197 225 
Q 856 225 856 428 
L 856 3944 
Q 856 4147 197 4147 
L 197 4372 
L 3725 4372 
L 3903 2906 
L 3719 2906 
Q 3675 3309 3601 3542 
Q 3528 3775 3387 3908 
Q 3247 4041 3011 4094 
Q 2775 4147 2363 4147 
L 1778 4147 
Q 1663 4147 1598 4137 
Q 1534 4128 1493 4083 
Q 1453 4038 1453 3944 
L 1453 2297 
L 1906 2297 
Q 2234 2297 2387 2355 
Q 2541 2413 2598 2566 
Q 2656 2719 2656 3047 
L 2841 3047 
L 2841 1325 
L 2656 1325 
Q 2656 1653 2598 1806 
Q 2541 1959 2387 2017 
Q 2234 2075 1906 2075 
L 1453 2075 
L 1453 428 
Q 1453 225 2272 225 
L 2272 0 
L 197 0 
z
" transform="scale(0.015625)"/>
      </defs>
      <use xlink:href="#Cmr10-43"/>
      <use xlink:href="#Cmr10-44" transform="translate(72.216797 0)"/>
      <use xlink:href="#Cmr10-46" transform="translate(148.535156 0)"/>
     </g>
    </g>
   </g>
   <g id="line2d_89">
    <path d="M 32.847875 176.686875 
L 32.917625 129.378619 
L 32.987375 129.2675 
L 33.057125 110.723148 
L 33.126875 110.612028 
L 33.196625 98.084495 
L 33.266375 97.973376 
L 33.336125 88.481738 
L 33.405875 88.370619 
L 33.475625 83.622724 
L 33.545375 83.511605 
L 33.615125 79.967792 
L 33.684875 79.856673 
L 33.754625 76.962075 
L 33.824375 76.850956 
L 33.894125 74.661777 
L 33.963875 74.550658 
L 34.033625 73.040928 
L 34.103375 72.929809 
L 34.173125 71.667054 
L 34.242875 71.555935 
L 34.312625 70.365035 
L 34.382375 70.253915 
L 34.452125 69.05275 
L 34.521875 68.941631 
L 34.591625 68.073319 
L 34.661375 67.9622 
L 34.731125 67.181168 
L 34.800875 67.070048 
L 34.870625 66.439456 
L 34.940375 66.328337 
L 35.010125 65.758662 
L 35.079875 65.647542 
L 35.149625 64.956707 
L 35.219375 64.845588 
L 35.289125 64.119246 
L 35.358875 64.008127 
L 35.428625 63.564379 
L 35.498375 63.453259 
L 35.568125 63.074074 
L 35.637875 62.962955 
L 35.707625 62.666225 
L 35.777375 62.555106 
L 35.847125 62.273017 
L 35.916875 62.161898 
L 35.986625 61.831344 
L 36.056375 61.720225 
L 36.126125 61.274851 
L 36.195875 61.163731 
L 36.265625 60.868629 
L 36.335375 60.757509 
L 36.405125 60.488209 
L 36.474875 60.37709 
L 36.544625 60.184581 
L 36.614375 60.073461 
L 36.684125 59.900472 
L 36.753875 59.789353 
L 36.823625 59.608567 
L 36.893375 59.497447 
L 36.963125 59.314361 
L 37.032875 59.203242 
L 37.102625 59.035189 
L 37.172375 58.92407 
L 37.242125 58.737955 
L 37.311875 58.626835 
L 37.381625 58.469664 
L 37.451375 58.358545 
L 37.521125 58.229252 
L 37.590875 58.118132 
L 37.660625 57.989681 
L 37.730375 57.878561 
L 37.800125 57.719819 
L 37.869875 57.6087 
L 37.939625 57.492981 
L 38.009375 57.381862 
L 38.079125 57.264685 
L 38.218625 57.153509 
L 38.288375 56.974911 
L 38.427875 56.863736 
L 38.497625 56.701572 
L 38.637125 56.590397 
L 38.706875 56.413761 
L 38.846375 56.302586 
L 38.916125 56.12281 
L 39.055625 56.011634 
L 39.125375 55.85407 
L 39.264875 55.742895 
L 39.334625 55.565587 
L 39.474125 55.454411 
L 39.543875 55.275532 
L 39.683375 55.164357 
L 39.753125 54.958666 
L 39.892625 54.84749 
L 39.962375 54.660197 
L 40.101875 54.549022 
L 40.171625 54.330878 
L 40.241375 54.219759 
L 40.311125 54.100058 
L 40.450625 53.988882 
L 40.520375 53.771299 
L 40.659875 53.660124 
L 40.729625 53.455723 
L 40.869125 53.344548 
L 40.938875 53.179804 
L 41.078375 53.068628 
L 41.148125 52.8672 
L 41.287625 52.756025 
L 41.357375 52.617813 
L 41.496875 52.506638 
L 41.566625 52.395182 
L 41.706125 52.284006 
L 41.775875 52.186966 
L 41.915375 52.075791 
L 41.985125 51.951883 
L 42.124625 51.840707 
L 42.194375 51.739741 
L 42.333875 51.628565 
L 42.403625 51.559684 
L 42.543125 51.448508 
L 42.612875 51.360555 
L 42.752375 51.24938 
L 42.822125 51.098155 
L 42.961625 50.986979 
L 43.031375 50.843607 
L 43.170875 50.732431 
L 43.240625 50.625183 
L 43.380125 50.514007 
L 43.449875 50.436039 
L 43.589375 50.324863 
L 43.659125 50.229899 
L 43.798625 50.118723 
L 43.868375 50.050964 
L 44.007875 49.939788 
L 44.077625 49.873375 
L 44.286875 49.762143 
L 44.356625 49.66544 
L 44.496125 49.554264 
L 44.565875 49.499574 
L 44.775125 49.388343 
L 44.844875 49.280084 
L 45.054125 49.168853 
L 45.123875 49.096549 
L 45.263375 48.985374 
L 45.333125 48.808122 
L 45.472625 48.696946 
L 45.542375 48.638161 
L 45.751625 48.52693 
L 45.821375 48.468762 
L 46.030625 48.357531 
L 46.100375 48.296502 
L 46.309625 48.185271 
L 46.379375 48.109602 
L 46.518875 47.998426 
L 46.588625 47.877267 
L 46.797875 47.766035 
L 46.867625 47.678643 
L 47.076875 47.567412 
L 47.146625 47.510982 
L 47.425625 47.399695 
L 47.495375 47.341583 
L 47.774375 47.230296 
L 47.844125 47.172689 
L 48.053375 47.061457 
L 48.123125 46.995044 
L 48.332375 46.883812 
L 48.402125 46.848362 
L 48.681125 46.737074 
L 48.750875 46.708355 
L 49.029875 46.597067 
L 49.099625 46.570143 
L 49.448375 46.458799 
L 49.518125 46.40955 
L 49.866875 46.298206 
L 49.936625 46.271899 
L 50.355125 46.160499 
L 50.424875 46.115401 
L 50.843375 46.004001 
L 50.913125 45.968887 
L 51.261875 45.857544 
L 51.331625 45.831685 
L 51.819875 45.720229 
L 51.889625 45.6859 
L 52.238375 45.574557 
L 52.308125 45.545052 
L 52.656875 45.433708 
L 52.726625 45.329264 
L 52.866125 45.218089 
L 52.935875 45.146964 
L 53.145125 45.035732 
L 53.214875 45.00404 
L 53.633375 44.89264 
L 53.703125 44.859602 
L 54.121625 44.748202 
L 54.191375 44.71909 
L 54.679625 44.607634 
L 54.749375 44.588787 
L 55.237625 44.477331 
L 55.307375 44.446032 
L 55.795625 44.334576 
L 55.865375 44.318645 
L 56.493125 44.207077 
L 56.562875 44.192437 
L 57.190625 44.080869 
L 57.260375 44.057703 
L 57.957875 43.946079 
L 58.027625 43.93458 
L 58.864625 43.822844 
L 58.934375 43.804502 
L 59.701625 43.692821 
L 59.771375 43.677452 
L 60.538625 43.565772 
L 60.608375 43.546027 
L 61.375625 43.434347 
L 61.445375 43.412527 
L 62.212625 43.300847 
L 62.282375 43.287272 
L 63.258875 43.175424 
L 63.328625 43.165552 
L 64.723625 43.053367 
L 64.793375 43.044392 
L 66.118625 42.932263 
L 66.188375 42.92211 
L 66.537125 42.810767 
L 66.606875 42.760732 
L 67.443875 42.648996 
L 67.513625 42.640526 
L 68.908625 42.528341 
L 68.978375 42.514318 
L 70.512875 42.40202 
L 70.582625 42.396243 
L 71.907875 42.284114 
L 71.977625 42.276429 
L 73.163375 42.164413 
L 73.233125 42.148426 
L 74.697875 42.036185 
L 74.767625 42.029847 
L 76.371875 41.917493 
L 76.441625 41.905433 
L 77.836625 41.793248 
L 77.906375 41.786573 
L 79.859375 41.67394 
L 79.929125 41.648922 
L 82.579625 41.535728 
L 82.649375 41.527538 
L 85.299875 41.414344 
L 85.369625 41.405425 
L 87.183125 41.292903 
L 87.252875 41.288584 
L 89.554625 41.17567 
L 89.624375 41.162432 
L 91.577375 41.049798 
L 91.647125 41.043909 
L 93.042125 40.931724 
L 93.111875 40.920337 
L 94.576625 40.808096 
L 94.646375 40.644474 
L 95.134625 40.533018 
L 95.204375 40.529372 
L 99.040625 40.415224 
L 99.110375 40.41197 
L 104.550875 40.296532 
L 104.620625 40.292662 
L 107.480375 40.179299 
L 107.550125 40.177448 
L 111.107375 40.063524 
L 111.177125 40.059317 
L 113.967125 39.94601 
L 114.036875 39.942813 
L 117.873125 39.828664 
L 117.942875 39.825018 
L 124.359875 39.708795 
L 124.429625 39.707617 
L 129.730625 39.59229 
L 129.800375 39.588027 
L 134.892125 39.47287 
L 134.961875 39.470738 
L 137.891375 39.357319 
L 137.961125 39.352888 
L 146.052125 39.235318 
L 146.121875 39.234645 
L 151.143875 39.119543 
L 151.213625 39.105351 
L 159.025625 38.988006 
L 159.095375 38.986211 
L 170.813375 38.865724 
L 170.883125 38.857535 
L 180.508625 38.738731 
L 180.578375 38.737609 
L 189.087875 38.619702 
L 189.157625 38.607474 
L 194.319125 38.49226 
L 194.388875 38.489231 
L 200.247875 38.412777 
L 200.247875 38.412777 
" clip-path="url(#pff17939f72)" style="fill: none; stroke: #0c5da5; stroke-linecap: square"/>
   </g>
   <g id="line2d_90">
    <path d="M 32.778125 145.086075 
L 33.615125 129.663675 
L 34.452125 110.007675 
L 35.289125 103.506075 
L 36.126125 98.365275 
L 36.963125 93.980475 
L 37.800125 90.502875 
L 38.637125 85.210875 
L 40.311125 80.523675 
L 41.985125 77.046075 
L 42.822125 74.475675 
L 44.496125 72.510075 
L 46.170125 70.846875 
L 47.007125 69.486075 
L 50.355125 67.066875 
L 51.192125 66.008475 
L 52.029125 65.403675 
L 54.540125 64.042875 
L 55.377125 63.286875 
L 56.214125 62.833275 
L 58.725125 61.926075 
L 59.562125 61.321275 
L 60.399125 61.018875 
L 61.236125 60.867675 
L 62.073125 60.565275 
L 62.910125 60.414075 
L 63.747125 59.809275 
L 64.584125 59.658075 
L 66.258125 59.053275 
L 67.095125 58.902075 
L 67.932125 58.448475 
L 71.280125 57.843675 
L 72.117125 57.390075 
L 75.465125 56.785275 
L 76.302125 56.482875 
L 77.139125 56.482875 
L 79.650125 56.029275 
L 80.487125 55.726875 
L 83.835125 55.122075 
L 84.672125 54.819675 
L 85.509125 54.819675 
L 87.183125 54.517275 
L 88.020125 54.517275 
L 88.857125 54.214875 
L 89.694125 54.063675 
L 90.531125 54.063675 
L 93.042125 53.610075 
L 93.879125 53.610075 
L 95.553125 53.307675 
L 96.390125 53.307675 
L 98.064125 53.005275 
L 100.575125 52.702875 
L 102.249125 52.400475 
L 103.086125 52.400475 
L 103.923125 52.249275 
L 104.760125 52.249275 
L 107.271125 51.795675 
L 108.108125 51.795675 
L 110.619125 51.342075 
L 111.456125 51.342075 
L 113.130125 51.190875 
L 112.293125 51.190875 
L 114.804125 50.737275 
L 115.641125 50.737275 
L 118.152125 50.283675 
L 118.989125 50.283675 
L 121.500125 49.981275 
L 124.011125 49.527675 
L 124.848125 49.527675 
L 125.685125 49.376475 
L 129.870125 48.922875 
L 130.707125 48.620475 
L 133.218125 48.166875 
L 134.055125 48.166875 
L 135.729125 47.864475 
L 136.566125 47.864475 
L 137.403125 47.713275 
L 138.240125 47.713275 
L 139.077125 47.410875 
L 143.262125 46.957275 
L 144.099125 46.806075 
L 145.773125 46.806075 
L 148.284125 46.352475 
L 149.121125 46.352475 
L 149.958125 46.201275 
L 150.795125 46.201275 
L 151.632125 46.050075 
L 153.306125 46.050075 
L 155.817125 45.747675 
L 156.654125 45.596475 
L 157.491125 45.596475 
L 158.328125 45.445275 
L 160.002125 45.445275 
L 167.535125 44.840475 
L 170.883125 44.689275 
L 170.046125 44.689275 
L 168.372125 44.689275 
L 169.209125 44.689275 
L 173.394125 44.386875 
L 174.231125 44.235675 
L 175.905125 44.235675 
L 176.742125 44.084475 
L 180.090125 44.084475 
L 180.927125 43.933275 
L 182.601125 43.782075 
L 184.275125 43.782075 
L 181.764125 43.782075 
L 183.438125 43.782075 
L 185.949125 43.630875 
L 187.623125 43.630875 
L 188.460125 43.479675 
L 190.134125 43.479675 
L 193.482125 43.328475 
L 197.667125 43.177275 
L 196.830125 43.177275 
L 194.319125 43.177275 
L 195.993125 43.177275 
L 200.178125 43.026075 
L 202.689125 43.026075 
L 203.526125 42.874875 
L 207.711125 42.874875 
L 212.278125 42.757017 
M 212.278125 42.723675 
L 208.548125 42.723675 
L 212.278125 42.627417 
" clip-path="url(#pff17939f72)" style="fill: none; stroke-dasharray: 3.7,1.6; stroke-dashoffset: 0; stroke: #00b945"/>
   </g>
   <g id="patch_3">
    <path d="M 32.778125 184.246875 
L 32.778125 17.926875 
" style="fill: none; stroke: #000000; stroke-width: 0.5; stroke-linejoin: miter; stroke-linecap: square"/>
   </g>
   <g id="patch_4">
    <path d="M 200.178125 184.246875 
L 200.178125 17.926875 
" style="fill: none; stroke: #000000; stroke-width: 0.5; stroke-linejoin: miter; stroke-linecap: square"/>
   </g>
   <g id="patch_5">
    <path d="M 32.778125 184.246875 
L 200.178125 184.246875 
" style="fill: none; stroke: #000000; stroke-width: 0.5; stroke-linejoin: miter; stroke-linecap: square"/>
   </g>
   <g id="patch_6">
    <path d="M 32.778125 17.926875 
L 200.178125 17.926875 
" style="fill: none; stroke: #000000; stroke-width: 0.5; stroke-linejoin: miter; stroke-linecap: square"/>
   </g>
   <g id="text_14">
    <!-- VM Lifetime -->
    <g transform="translate(82.926875 11.926875) scale(0.12 -0.12)">
     <defs>
      <path id="Cmr10-56" d="M 2253 -72 
L 744 3944 
Q 688 4078 528 4112 
Q 369 4147 122 4147 
L 122 4372 
L 1881 4372 
L 1881 4147 
Q 1350 4147 1350 3981 
Q 1353 3972 1354 3964 
Q 1356 3956 1356 3944 
L 2584 678 
L 3744 3769 
Q 3756 3794 3756 3847 
Q 3756 4003 3612 4075 
Q 3469 4147 3291 4147 
L 3291 4372 
L 4672 4372 
L 4672 4147 
Q 4431 4147 4248 4058 
Q 4066 3969 3988 3769 
L 2541 -72 
Q 2522 -141 2438 -141 
L 2356 -141 
Q 2272 -141 2253 -72 
z
" transform="scale(0.015625)"/>
      <path id="Cmr10-4d" d="M 225 0 
L 225 225 
Q 884 225 884 603 
L 884 3944 
Q 884 4147 225 4147 
L 225 4372 
L 1434 4372 
Q 1513 4372 1538 4300 
L 2931 678 
L 4325 4300 
Q 4350 4372 4428 4372 
L 5638 4372 
L 5638 4147 
Q 4978 4147 4978 3944 
L 4978 428 
Q 4978 225 5638 225 
L 5638 0 
L 3775 0 
L 3775 225 
Q 4434 225 4434 428 
L 4434 4153 
L 2859 72 
Q 2831 0 2753 0 
Q 2672 0 2644 72 
L 1088 4103 
L 1088 603 
Q 1088 225 1747 225 
L 1747 0 
L 225 0 
z
" transform="scale(0.015625)"/>
     </defs>
     <use xlink:href="#Cmr10-56"/>
     <use xlink:href="#Cmr10-4d" transform="translate(75 0)"/>
     <use xlink:href="#Cmr10-20" transform="translate(166.601562 0)"/>
     <use xlink:href="#Cmr10-4c" transform="translate(199.902344 0)"/>
     <use xlink:href="#Cmr10-69" transform="translate(262.402344 0)"/>
     <use xlink:href="#Cmr10-66" transform="translate(290.087891 0)"/>
     <use xlink:href="#Cmr10-65" transform="translate(320.605469 0)"/>
     <use xlink:href="#Cmr10-74" transform="translate(364.990234 0)"/>
     <use xlink:href="#Cmr10-69" transform="translate(403.808594 0)"/>
     <use xlink:href="#Cmr10-6d" transform="translate(431.494141 0)"/>
     <use xlink:href="#Cmr10-65" transform="translate(514.794922 0)"/>
    </g>
   </g>
   <g id="legend_1">
    <g id="line2d_91">
     <path d="M 95.464062 154.246875 
L 99.964062 154.246875 
L 104.464062 154.246875 
" style="fill: none; stroke: #0c5da5; stroke-linecap: square"/>
    </g>
    <g id="text_15">
     <!-- Lifetime (dataset) -->
     <g transform="translate(112.464062 157.746875) scale(0.1 -0.1)">
      <defs>
       <path id="Cmr10-64" d="M 1563 -72 
Q 1184 -72 871 133 
Q 559 338 386 672 
Q 213 1006 213 1381 
Q 213 1769 402 2101 
Q 591 2434 916 2631 
Q 1241 2828 1631 2828 
Q 1866 2828 2075 2729 
Q 2284 2631 2438 2456 
L 2438 3788 
Q 2438 3959 2386 4036 
Q 2334 4113 2239 4130 
Q 2144 4147 1941 4147 
L 1941 4372 
L 2888 4441 
L 2888 581 
Q 2888 413 2939 336 
Q 2991 259 3086 242 
Q 3181 225 3384 225 
L 3384 0 
L 2419 -72 
L 2419 331 
Q 2253 141 2025 34 
Q 1797 -72 1563 -72 
z
M 909 556 
Q 1019 347 1201 222 
Q 1384 97 1600 97 
Q 1866 97 2087 250 
Q 2309 403 2419 647 
L 2419 2181 
Q 2344 2322 2230 2433 
Q 2116 2544 1973 2603 
Q 1831 2663 1672 2663 
Q 1338 2663 1134 2473 
Q 931 2284 850 1990 
Q 769 1697 769 1375 
Q 769 1119 795 928 
Q 822 738 909 556 
z
" transform="scale(0.015625)"/>
       <path id="Cmr10-61" d="M 256 628 
Q 256 1009 556 1248 
Q 856 1488 1276 1586 
Q 1697 1684 2075 1684 
L 2075 1947 
Q 2075 2131 1994 2304 
Q 1913 2478 1759 2589 
Q 1606 2700 1422 2700 
Q 997 2700 775 2509 
Q 897 2509 976 2417 
Q 1056 2325 1056 2203 
Q 1056 2075 965 1984 
Q 875 1894 750 1894 
Q 622 1894 531 1984 
Q 441 2075 441 2203 
Q 441 2541 747 2705 
Q 1053 2869 1422 2869 
Q 1681 2869 1943 2758 
Q 2206 2647 2373 2440 
Q 2541 2234 2541 1959 
L 2541 519 
Q 2541 394 2594 289 
Q 2647 184 2759 184 
Q 2866 184 2917 290 
Q 2969 397 2969 519 
L 2969 928 
L 3156 928 
L 3156 519 
Q 3156 375 3081 245 
Q 3006 116 2879 39 
Q 2753 -38 2606 -38 
Q 2419 -38 2283 107 
Q 2147 253 2131 453 
Q 2013 213 1781 70 
Q 1550 -72 1288 -72 
Q 1044 -72 808 0 
Q 572 72 414 226 
Q 256 381 256 628 
z
M 775 628 
Q 775 403 940 250 
Q 1106 97 1331 97 
Q 1538 97 1706 200 
Q 1875 303 1975 481 
Q 2075 659 2075 856 
L 2075 1522 
Q 1784 1522 1479 1426 
Q 1175 1331 975 1128 
Q 775 925 775 628 
z
" transform="scale(0.015625)"/>
      </defs>
      <use xlink:href="#Cmr10-4c"/>
      <use xlink:href="#Cmr10-69" transform="translate(62.5 0)"/>
      <use xlink:href="#Cmr10-66" transform="translate(90.185547 0)"/>
      <use xlink:href="#Cmr10-65" transform="translate(120.703125 0)"/>
      <use xlink:href="#Cmr10-74" transform="translate(165.087891 0)"/>
      <use xlink:href="#Cmr10-69" transform="translate(203.90625 0)"/>
      <use xlink:href="#Cmr10-6d" transform="translate(231.591797 0)"/>
      <use xlink:href="#Cmr10-65" transform="translate(314.892578 0)"/>
      <use xlink:href="#Cmr10-20" transform="translate(359.277344 0)"/>
      <use xlink:href="#Cmr10-28" transform="translate(392.578125 0)"/>
      <use xlink:href="#Cmr10-64" transform="translate(431.396484 0)"/>
      <use xlink:href="#Cmr10-61" transform="translate(486.914062 0)"/>
      <use xlink:href="#Cmr10-74" transform="translate(536.914062 0)"/>
      <use xlink:href="#Cmr10-61" transform="translate(575.732422 0)"/>
      <use xlink:href="#Cmr10-73" transform="translate(625.732422 0)"/>
      <use xlink:href="#Cmr10-65" transform="translate(665.136719 0)"/>
      <use xlink:href="#Cmr10-74" transform="translate(709.521484 0)"/>
      <use xlink:href="#Cmr10-29" transform="translate(748.339844 0)"/>
     </g>
    </g>
    <g id="line2d_92">
     <path d="M 95.464062 169.246875 
L 99.964062 169.246875 
L 104.464062 169.246875 
" style="fill: none; stroke-dasharray: 3.7,1.6; stroke-dashoffset: 0; stroke: #00b945"/>
    </g>
    <g id="text_16">
     <!-- Lifetime (all) -->
     <g transform="translate(112.464062 172.746875) scale(0.1 -0.1)">
      <defs>
       <path id="Cmr10-6c" d="M 197 0 
L 197 225 
Q 416 225 556 259 
Q 697 294 697 428 
L 697 3788 
Q 697 3959 645 4036 
Q 594 4113 497 4130 
Q 400 4147 197 4147 
L 197 4372 
L 1147 4441 
L 1147 428 
Q 1147 294 1287 259 
Q 1428 225 1644 225 
L 1644 0 
L 197 0 
z
" transform="scale(0.015625)"/>
      </defs>
      <use xlink:href="#Cmr10-4c"/>
      <use xlink:href="#Cmr10-69" transform="translate(62.5 0)"/>
      <use xlink:href="#Cmr10-66" transform="translate(90.185547 0)"/>
      <use xlink:href="#Cmr10-65" transform="translate(120.703125 0)"/>
      <use xlink:href="#Cmr10-74" transform="translate(165.087891 0)"/>
      <use xlink:href="#Cmr10-69" transform="translate(203.90625 0)"/>
      <use xlink:href="#Cmr10-6d" transform="translate(231.591797 0)"/>
      <use xlink:href="#Cmr10-65" transform="translate(314.892578 0)"/>
      <use xlink:href="#Cmr10-20" transform="translate(359.277344 0)"/>
      <use xlink:href="#Cmr10-28" transform="translate(392.578125 0)"/>
      <use xlink:href="#Cmr10-61" transform="translate(431.396484 0)"/>
      <use xlink:href="#Cmr10-6c" transform="translate(481.396484 0)"/>
      <use xlink:href="#Cmr10-6c" transform="translate(509.082031 0)"/>
      <use xlink:href="#Cmr10-29" transform="translate(536.767578 0)"/>
     </g>
    </g>
   </g>
  </g>
 </g>
 <defs>
  <clipPath id="pff17939f72">
   <rect x="32.778125" y="17.926875" width="167.4" height="166.32"/>
  </clipPath>
 </defs>
</svg>
